# xmcd
#
# Track frame offsets:
#	150
#	9251
#	20141
#	31003
#	40829
#	52979
#	64455
#	73381
#	84813
#	92505
#	103240
#	115083
#	126732
#	135328
#	147598
#	158178
#	166557
#	181713
#	192512
#	203131
#	221835
#	230580
#	241454
#	252256
#
# Disc length: 3491 seconds
#
# Revision: 1
# Processed by: cddbd v1.5.2PL0 Copyright (c) Steve Scherf et al.
# Submitted via: audiograbber 1.83.01
#
DISCID=540da118
DTITLE=Elvis Presley - Elvis and Elvis Presley
DYEAR=2007
DGENRE=Rock and Roll
TTITLE0=Blue Suede Shoes
TTITLE1=I'm Counting On You
TTITLE2=I Got A Woman
TTITLE3=One Sided Love Affair
TTITLE4=I Love You Because
TTITLE5=Just Because
TTITLE6=Tutti Frutti
TTITLE7=Tryin' To Get To You
TTITLE8=I'm Gonna Sit Right Down And Cry (Over You)
TTITLE9=I'll Never Let You Go (Little Darlin')
TTITLE10=Blue Moon
TTITLE11=Money Honey
TTITLE12=Rip It Up
TTITLE13=Love Me
TTITLE14=When My Blue Moon Turns To Gold Again
TTITLE15=Long Tall Sally
TTITLE16=First In Line
TTITLE17=Paralyzed
TTITLE18=So Glad You're Mine
TTITLE19=Old Shep
TTITLE20=Ready Teddy
TTITLE21=Any Place Is Paradise
TTITLE22=How's The World Treating You
TTITLE23=How Do You Think I Feel
EXTD=
EXTT0=
EXTT1=
EXTT2=
EXTT3=
EXTT4=
EXTT5=
EXTT6=
EXTT7=
EXTT8=
EXTT9=
EXTT10=
EXTT11=
EXTT12=
EXTT13=
EXTT14=
EXTT15=
EXTT16=
EXTT17=
EXTT18=
EXTT19=
EXTT20=
EXTT21=
EXTT22=
EXTT23=
PLAYORDER=
